<svg xmlns="http://www.w3.org/2000/svg" width="256" height="256" viewBox="0 0 100 100"><rect width="100" height="100" rx="20" fill="#514e63"></rect><path d="M77.45 50.85L77.45 71.95Q77.45 74.45 76.40 75.80Q75.35 77.15 73.05 78.35L73.05 78.35Q71.75 79.15 69.80 79.80Q67.85 80.45 65.50 80.90Q63.15 81.35 60.65 81.65Q58.15 81.95 55.65 81.95L55.65 81.95Q48.55 81.95 42.50 80.10Q36.45 78.25 32 74.35Q27.55 70.45 25.05 64.45Q22.55 58.45 22.55 50.15L22.55 50.15Q22.55 42.25 25.10 36.20Q27.65 30.15 32.10 26.15Q36.55 22.15 42.45 20.10Q48.35 18.05 55.15 18.05L55.15 18.05Q59.65 18.05 63.30 18.80Q66.95 19.55 69.60 20.80Q72.25 22.05 73.65 23.80Q75.05 25.55 75.05 27.45L75.05 27.45Q75.05 29.45 73.95 30.95Q72.85 32.45 71.45 33.25L71.45 33.25Q68.85 31.55 65.15 30.10Q61.45 28.65 56.05 28.65L56.05 28.65Q51.65 28.65 47.95 30.10Q44.25 31.55 41.60 34.25Q38.95 36.95 37.45 40.95Q35.95 44.95 35.95 50.05L35.95 50.05Q35.95 55.55 37.45 59.55Q38.95 63.55 41.60 66.20Q44.25 68.85 47.90 70.10Q51.55 71.35 55.85 71.35L55.85 71.35Q58.75 71.35 61.15 70.85Q63.55 70.35 64.85 69.65L64.85 69.65L64.85 55.75L52.05 55.75Q51.55 54.95 51.15 53.65Q50.75 52.35 50.75 50.75L50.75 50.75Q50.75 48.15 52 46.85Q53.25 45.55 55.25 45.55L55.25 45.55L72.05 45.55Q74.55 45.55 76 46.95Q77.45 48.35 77.45 50.85L77.45 50.85Z" fill="#fff"></path></svg>